<svg aria-hidden="true" style="width:0;height:0;position:absolute;overflow:hidden" xmlns="http://www.w3.org/2000/svg"><defs><symbol id="icon-google" viewBox="0 0 32 32"><path fill="#78a0cf" style="fill:var(--color1,#78a0cf)" d="M4.16 8.64a.64.64 0 0 0 0 1.28.64.64 0 0 0 0-1.28z"/><path fill="#f1bc19" style="fill:var(--color2,#f1bc19)" d="M24.64 3.84a.32.32 0 1 0 0 .64.32.32 0 1 0 0-.64z"/><path fill="#cee1f4" style="fill:var(--color3,#cee1f4)" d="M16 4.16C9.461 4.16 4.16 9.461 4.16 16S9.461 27.84 16 27.84 27.84 22.539 27.84 16 22.539 4.16 16 4.16z"/><path fill="#f1bc19" style="fill:var(--color2,#f1bc19)" d="M26.56 3.52a1.28 1.28 0 1 0 0 2.56 1.28 1.28 0 1 0 0-2.56z"/><path fill="#78a0cf" style="fill:var(--color1,#78a0cf)" d="M27.84 7.04a.64.64 0 0 0 0 1.28.64.64 0 0 0 0-1.28z"/><path fill="#fbcd59" style="fill:var(--color4,#fbcd59)" d="M25.92 23.68a.64.64 0 0 0 0 1.28.64.64 0 0 0 0-1.28zM4.8 18.88a1.28 1.28 0 1 0 0 2.56 1.28 1.28 0 1 0 0-2.56z"/><path fill="#78a0cf" style="fill:var(--color1,#78a0cf)" d="M8 27.2a.64.64 0 0 0 0 1.28.64.64 0 0 0 0-1.28z"/><path fill="#fff" style="fill:var(--color5,#fff)" d="M5.92 16.32a.8.8 0 1 0 0 1.6.8.8 0 1 0 0-1.6z"/><path fill="#f1bc19" style="fill:var(--color2,#f1bc19)" d="M6.72 21.12a.32.32 0 1 0 0 .64.32.32 0 1 0 0-.64z"/><path fill="#fff" style="fill:var(--color5,#fff)" d="M25.6 10.56a.32.32 0 1 0 0 .64.32.32 0 1 0 0-.64z"/><path fill="#ea5167" style="fill:var(--color6,#ea5167)" d="M11.275 15.183A4.797 4.797 0 0 1 16 11.2c1.077 0 2.068.359 2.87.959l2.046-2.203A7.76 7.76 0 0 0 8.361 14.6l2.913.583z"/><path fill="#00a698" style="fill:var(--color7,#00a698)" d="M18.85 19.862a4.798 4.798 0 0 1-7.629-3.442l-2.851.95a7.76 7.76 0 0 0 12.836 4.344l-2.357-1.852z"/><path fill="#48bed8" style="fill:var(--color8,#48bed8)" d="M21.92 14.56h-5.76v2.88h4.42a4.814 4.814 0 0 1-2.015 2.617l2.318 1.932a7.743 7.743 0 0 0 2.749-7.429H21.92z"/><path fill="#fde751" style="fill:var(--color9,#fde751)" d="M11.2 16c0-.699.153-1.361.421-1.959l-2.502-1.668a7.716 7.716 0 0 0-.879 3.587c0 1.211.278 2.357.772 3.378L11.52 17.6c-.117-.415-.32-1.147-.32-1.6z"/><path fill="#472b29" style="fill:var(--color10,#472b29)" d="M16 23.944c-4.402 0-7.984-3.581-7.984-7.984S11.598 7.976 16 7.976c1.84 0 3.636.642 5.057 1.807l.184.151-2.345 2.525-.161-.121a4.535 4.535 0 0 0-2.736-.915c-2.523 0-4.576 2.053-4.576 4.576s2.053 4.576 4.576 4.576a4.556 4.556 0 0 0 4.264-2.912l-4.264.003-.003-3.259 7.819-.003.033.184c.088.481.135.896.135 1.371 0 4.403-3.581 7.984-7.984 7.984zm0-15.52c-4.155 0-7.536 3.38-7.536 7.536s3.381 7.536 7.536 7.536 7.536-3.38 7.536-7.536a6.73 6.73 0 0 0-.096-1.107h-7.059l.003 2.363h4.501l-.092.291A5.004 5.004 0 0 1 16 21.024c-2.77 0-5.024-2.254-5.024-5.024S13.23 10.976 16 10.976c1.021 0 1.998.306 2.84.886l1.747-1.881A7.556 7.556 0 0 0 16 8.424z"/></symbol></defs></svg>