<svg aria-hidden="true" style="position: absolute; width: 0; height: 0; overflow: hidden;" version="1.1" xmlns="http://www.w3.org/2000/svg" xmlns:xlink="http://www.w3.org/1999/xlink">
<defs>
<symbol id="icon-mail" viewBox="0 0 32 32">
<path d="M8.96 2.56c-3.527 0-6.4 2.873-6.4 6.4v14.080c0 3.527 2.873 6.4 6.4 6.4h14.080c3.527 0 6.4-2.873 6.4-6.4v-14.080c0-3.527-2.873-6.4-6.4-6.4h-14.080zM8.96 3.84h14.080c2.836 0 5.12 2.284 5.12 5.12v14.080c0 2.836-2.284 5.12-5.12 5.12h-14.080c-2.836 0-5.12-2.284-5.12-5.12v-14.080c0-2.836 2.284-5.12 5.12-5.12zM8.32 9.6c-1.053 0-1.92 0.867-1.92 1.92v8.96c0 1.053 0.867 1.92 1.92 1.92h15.36c1.053 0 1.92-0.867 1.92-1.92v-8.96c0-1.053-0.867-1.92-1.92-1.92h-15.36zM8.585 10.88h14.829l-5.7 5.691c-0.955 0.954-2.484 0.954-3.439-0.001l-5.69-5.69zM24.32 11.784v8.432l-4.223-4.216 4.223-4.216zM7.68 11.785l4.215 4.215-4.215 4.215v-8.43zM19.192 16.904l4.223 4.216h-14.83l4.215-4.215 0.57 0.57c1.444 1.444 3.803 1.445 5.248 0.003l0.575-0.574z"></path>
</symbol>
<symbol id="icon-key" viewBox="0 0 32 32">
<path d="M9.333 6.667c-5.155 0-9.333 4.179-9.333 9.333s4.179 9.333 9.333 9.333c4.228 0 7.795-2.812 8.943-6.667h5.724v4h5.333v-4h2.667v-5.333h-13.724c-1.148-3.855-4.715-6.667-8.943-6.667zM9.333 12c2.209 0 4 1.791 4 4s-1.791 4-4 4c-2.209 0-4-1.791-4-4s1.791-4 4-4z"></path>
</symbol>
</defs>
</svg>
