<svg aria-hidden="true" style="position: absolute; width: 0; height: 0; overflow: hidden;" version="1.1" xmlns="http://www.w3.org/2000/svg" xmlns:xlink="http://www.w3.org/1999/xlink">
<defs>
<symbol id="icon-close" viewBox="0 0 32 32">
<path fill="#ed7899" style="fill: var(--color1, #ed7899)" d="M15.5 1.5c-7.732 0-14 6.268-14 14s6.268 14 14 14v0c7.732 0 14-6.268 14-14s-6.268-14-14-14v0z"></path>
<path fill="#f9e3ae" style="fill: var(--color2, #f9e3ae)" d="M15.5 1.5c-7.732 0-14 6.268-14 14s6.268 14 14 14 14-6.268 14-14-6.268-14-14-14zM15.5 26.5c-6.075 0-11-4.925-11-11s4.925-11 11-11c2.942 0 5.613 1.155 7.587 3.035 0.116 0.11 0.228 0.222 0.338 0.337 0.129 0.134 0.255 0.271 0.378 0.412 1.68 1.931 2.697 4.455 2.697 7.216 0 6.075-4.925 11-11 11z"></path>
<path fill="#f6d397" style="fill: var(--color3, #f6d397)" d="M15.5 26.5c-6.075 0-11-4.925-11-11h-0.83c-1.245 0-2.18 1.125-1.972 2.353 1.118 6.611 6.873 11.647 13.803 11.647s12.684-5.035 13.803-11.647c0.208-1.228-0.727-2.353-1.973-2.353h-0.831c0 6.075-4.925 11-11 11z"></path>
<path fill="#8d6c9f" style="fill: var(--color4, #8d6c9f)" d="M15.5 1c-7.995 0-14.5 6.505-14.5 14.5s6.505 14.5 14.5 14.5 14.5-6.505 14.5-14.5-6.505-14.5-14.5-14.5zM15.5 29c-7.444 0-13.5-6.056-13.5-13.5s6.056-13.5 13.5-13.5 13.5 6.056 13.5 13.5-6.056 13.5-13.5 13.5z"></path>
<path fill="#8d6c9f" style="fill: var(--color4, #8d6c9f)" d="M15.5 25c-0.277 0-0.5 0.224-0.5 0.5v1c0 0.276 0.223 0.5 0.5 0.5s0.5-0.224 0.5-0.5v-1c0-0.276-0.223-0.5-0.5-0.5zM18.506 25.038c-0.072-0.267-0.346-0.426-0.613-0.354s-0.425 0.346-0.354 0.613l0.259 0.966c0.059 0.224 0.262 0.371 0.483 0.371 0.043 0 0.087-0.006 0.13-0.017 0.267-0.072 0.425-0.346 0.354-0.613l-0.259-0.966zM10.875 23.761c-0.239-0.137-0.545-0.056-0.683 0.183l-0.5 0.866c-0.138 0.239-0.056 0.545 0.183 0.683 0.079 0.046 0.165 0.067 0.249 0.067 0.173 0 0.341-0.090 0.434-0.25l0.5-0.866c0.139-0.238 0.056-0.544-0.183-0.683zM20.808 23.944c-0.139-0.239-0.445-0.321-0.683-0.183-0.239 0.138-0.322 0.444-0.183 0.683l0.5 0.866c0.093 0.16 0.261 0.25 0.433 0.25 0.085 0 0.171-0.021 0.25-0.067 0.239-0.138 0.322-0.444 0.183-0.683l-0.5-0.866zM13.106 24.685c-0.267-0.072-0.541 0.087-0.613 0.354l-0.259 0.966c-0.072 0.267 0.087 0.541 0.354 0.613 0.043 0.012 0.087 0.017 0.13 0.017 0.22 0 0.423-0.148 0.482-0.371l0.259-0.966c0.072-0.267-0.087-0.541-0.354-0.613z"></path>
<path fill="#faefde" style="fill: var(--color5, #faefde)" d="M20.096 19.389l-3.889-3.889 3.889-3.889c0.195-0.195 0.195-0.511 0-0.707s-0.512-0.195-0.707 0l-3.889 3.889-3.889-3.889c-0.195-0.195-0.511-0.195-0.707 0s-0.195 0.511 0 0.707l3.889 3.889-3.889 3.889c-0.195 0.195-0.195 0.512 0 0.707 0.098 0.098 0.226 0.146 0.354 0.146s0.256-0.049 0.354-0.146l3.889-3.889 3.889 3.889c0.098 0.098 0.226 0.146 0.354 0.146s0.256-0.049 0.354-0.146c0.195-0.195 0.195-0.512 0-0.707z"></path>
<path fill="#8d6c9f" style="fill: var(--color4, #8d6c9f)" d="M19.175 5.661c0.357 0.133 0.71 0.288 1.050 0.46 0.073 0.037 0.149 0.053 0.224 0.053 0.183 0 0.359-0.101 0.447-0.274 0.125-0.247 0.026-0.548-0.221-0.671-0.372-0.188-0.759-0.357-1.151-0.503-0.259-0.097-0.546 0.035-0.643 0.293-0.098 0.259 0.034 0.546 0.293 0.643zM8.075 8.075c2.374-2.374 5.774-3.474 9.094-2.943 0.273 0.044 0.529-0.142 0.573-0.415s-0.142-0.529-0.415-0.573c-3.634-0.583-7.358 0.623-9.959 3.223-4.484 4.484-4.484 11.78 0 16.263 0.098 0.098 0.226 0.146 0.354 0.146s0.256-0.049 0.354-0.146c0.195-0.195 0.195-0.512 0-0.707-4.094-4.093-4.094-10.755-0.001-14.848zM23.632 7.369c-0.329-0.33-0.681-0.641-1.047-0.928-0.218-0.17-0.532-0.132-0.702 0.085s-0.133 0.532 0.085 0.702c0.334 0.261 0.656 0.547 0.957 0.848 4.094 4.094 4.094 10.755 0 14.849-0.195 0.195-0.195 0.512 0 0.707 0.098 0.098 0.226 0.146 0.354 0.146s0.256-0.049 0.354-0.146c4.483-4.483 4.483-11.78 0-16.263z"></path>
</symbol>
</defs>
</svg>
