<svg aria-hidden="true" style="position: absolute; width: 0; height: 0; overflow: hidden;" version="1.1" xmlns="http://www.w3.org/2000/svg" xmlns:xlink="http://www.w3.org/1999/xlink">
<defs>
<symbol id="icon-google" viewBox="0 0 32 32">
<path fill="#78a0cf" style="fill: var(--color1, #78a0cf)" d="M4.16 8.64c-0.353 0-0.64 0.287-0.64 0.64s0.287 0.64 0.64 0.64v0c0.353 0 0.64-0.287 0.64-0.64s-0.287-0.64-0.64-0.64v0z"></path>
<path fill="#f1bc19" style="fill: var(--color2, #f1bc19)" d="M24.64 3.84c-0.177 0-0.32 0.143-0.32 0.32s0.143 0.32 0.32 0.32v0c0.177 0 0.32-0.143 0.32-0.32s-0.143-0.32-0.32-0.32v0z"></path>
<path fill="#cee1f4" style="fill: var(--color3, #cee1f4)" d="M16 4.16c-6.539 0-11.84 5.301-11.84 11.84s5.301 11.84 11.84 11.84v0c6.539 0 11.84-5.301 11.84-11.84s-5.301-11.84-11.84-11.84v0z"></path>
<path fill="#f1bc19" style="fill: var(--color2, #f1bc19)" d="M26.56 3.52c-0.707 0-1.28 0.573-1.28 1.28s0.573 1.28 1.28 1.28v0c0.707 0 1.28-0.573 1.28-1.28s-0.573-1.28-1.28-1.28v0z"></path>
<path fill="#78a0cf" style="fill: var(--color1, #78a0cf)" d="M27.84 7.040c-0.353 0-0.64 0.287-0.64 0.64s0.287 0.64 0.64 0.64v0c0.353 0 0.64-0.287 0.64-0.64s-0.287-0.64-0.64-0.64v0z"></path>
<path fill="#fbcd59" style="fill: var(--color4, #fbcd59)" d="M25.92 23.68c-0.353 0-0.64 0.287-0.64 0.64s0.287 0.64 0.64 0.64v0c0.353 0 0.64-0.287 0.64-0.64s-0.287-0.64-0.64-0.64v0zM4.8 18.88c-0.707 0-1.28 0.573-1.28 1.28s0.573 1.28 1.28 1.28v0c0.707 0 1.28-0.573 1.28-1.28s-0.573-1.28-1.28-1.28v0z"></path>
<path fill="#78a0cf" style="fill: var(--color1, #78a0cf)" d="M8 27.2c-0.353 0-0.64 0.287-0.64 0.64s0.287 0.64 0.64 0.64v0c0.353 0 0.64-0.287 0.64-0.64s-0.287-0.64-0.64-0.64v0z"></path>
<path fill="#fff" style="fill: var(--color5, #fff)" d="M5.92 16.32c-0.442 0-0.8 0.358-0.8 0.8s0.358 0.8 0.8 0.8v0c0.442 0 0.8-0.358 0.8-0.8s-0.358-0.8-0.8-0.8v0z"></path>
<path fill="#f1bc19" style="fill: var(--color2, #f1bc19)" d="M6.72 21.12c-0.177 0-0.32 0.143-0.32 0.32s0.143 0.32 0.32 0.32v0c0.177 0 0.32-0.143 0.32-0.32s-0.143-0.32-0.32-0.32v0z"></path>
<path fill="#fff" style="fill: var(--color5, #fff)" d="M25.6 10.56c-0.177 0-0.32 0.143-0.32 0.32s0.143 0.32 0.32 0.32v0c0.177 0 0.32-0.143 0.32-0.32s-0.143-0.32-0.32-0.32v0z"></path>
<path fill="#ea5167" style="fill: var(--color6, #ea5167)" d="M11.275 15.183c0.388-2.261 2.354-3.983 4.725-3.983 1.077 0 2.068 0.359 2.87 0.959l2.046-2.203c-1.339-1.097-3.050-1.756-4.916-1.756-3.821 0-6.996 2.763-7.639 6.4l2.913 0.583z"></path>
<path fill="#00a698" style="fill: var(--color7, #00a698)" d="M18.85 19.862c-0.797 0.589-1.782 0.938-2.85 0.938-2.509 0-4.566-1.926-4.779-4.38l-2.851 0.95c0.663 3.612 3.826 6.35 7.63 6.35 2.004 0 3.83-0.76 5.206-2.006l-2.357-1.852z"></path>
<path fill="#48bed8" style="fill: var(--color8, #48bed8)" d="M21.92 14.56h-5.76v2.88h4.42c-0.343 1.092-1.067 2.016-2.015 2.617l2.318 1.932c1.755-1.423 2.877-3.595 2.877-6.029 0-0.478-0.045-0.946-0.128-1.4h-1.712z"></path>
<path fill="#fde751" style="fill: var(--color9, #fde751)" d="M11.2 16c0-0.699 0.153-1.361 0.421-1.959l-2.502-1.668c-0.561 1.073-0.879 2.292-0.879 3.587 0 1.211 0.278 2.357 0.772 3.378l2.508-1.738c-0.117-0.415-0.32-1.147-0.32-1.6z"></path>
<path fill="#472b29" style="fill: var(--color10, #472b29)" d="M16 23.944c-4.402 0-7.984-3.581-7.984-7.984s3.582-7.984 7.984-7.984c1.84 0 3.636 0.642 5.057 1.807l0.184 0.151-2.345 2.525-0.161-0.121c-0.799-0.598-1.745-0.915-2.736-0.915-2.523 0-4.576 2.053-4.576 4.576s2.053 4.576 4.576 4.576c1.906 0 3.582-1.158 4.264-2.912l-4.264 0.003-0.003-3.259 7.819-0.003 0.033 0.184c0.088 0.481 0.135 0.896 0.135 1.371 0 4.403-3.581 7.984-7.984 7.984zM16 8.424c-4.155 0-7.536 3.38-7.536 7.536s3.381 7.536 7.536 7.536 7.536-3.38 7.536-7.536c0-0.388-0.034-0.713-0.096-1.107h-7.059l0.003 2.363h4.501l-0.092 0.291c-0.661 2.103-2.587 3.517-4.793 3.517-2.77 0-5.024-2.254-5.024-5.024s2.254-5.024 5.024-5.024c1.021 0 1.998 0.306 2.84 0.886l1.747-1.881c-1.31-1.005-2.93-1.557-4.587-1.557z"></path>
</symbol>
</defs>
</svg>
