<svg aria-hidden="true" style="position: absolute; width: 0; height: 0; overflow: hidden;" version="1.1" xmlns="http://www.w3.org/2000/svg" xmlns:xlink="http://www.w3.org/1999/xlink">
<defs>
<symbol id="icon-cross" viewBox="0 0 32 32">
<path d="M31.708 25.708c-0-0-0-0-0-0l-9.708-9.708 9.708-9.708c0-0 0-0 0-0 0.105-0.105 0.18-0.227 0.229-0.357 0.133-0.356 0.057-0.771-0.229-1.057l-4.586-4.586c-0.286-0.286-0.702-0.361-1.057-0.229-0.13 0.048-0.252 0.124-0.357 0.228 0 0-0 0-0 0l-9.708 9.708-9.708-9.708c-0-0-0-0-0-0-0.105-0.104-0.227-0.18-0.357-0.228-0.356-0.133-0.771-0.057-1.057 0.229l-4.586 4.586c-0.286 0.286-0.361 0.702-0.229 1.057 0.049 0.13 0.124 0.252 0.229 0.357 0 0 0 0 0 0l9.708 9.708-9.708 9.708c-0 0-0 0-0 0-0.104 0.105-0.18 0.227-0.229 0.357-0.133 0.355-0.057 0.771 0.229 1.057l4.586 4.586c0.286 0.286 0.702 0.361 1.057 0.229 0.13-0.049 0.252-0.124 0.357-0.229 0-0 0-0 0-0l9.708-9.708 9.708 9.708c0 0 0 0 0 0 0.105 0.105 0.227 0.18 0.357 0.229 0.356 0.133 0.771 0.057 1.057-0.229l4.586-4.586c0.286-0.286 0.362-0.702 0.229-1.057-0.049-0.13-0.124-0.252-0.229-0.357z"></path>
</symbol>
<symbol id="icon-close" viewBox="0 0 32 32">
<path d="M7.979 7.981c-0.501 0.501-0.912 0.925-0.912 0.939 0 0.016 1.587 1.613 3.525 3.552l3.528 3.528-7.067 7.067 0.941 0.939 0.939 0.941 7.067-7.067 7.067 7.067 0.939-0.941 0.941-0.939-7.067-7.067 3.528-3.528c1.939-1.939 3.525-3.539 3.525-3.552 0-0.035-1.819-1.853-1.853-1.853-0.016 0-1.613 1.587-3.552 3.525l-3.528 3.528-3.528-3.528c-1.939-1.939-3.539-3.525-3.552-3.525-0.016 0-0.437 0.411-0.941 0.915z"></path>
</symbol>
<symbol id="icon-arrow-left" viewBox="0 0 32 32">
	<path d="M32 16c0 1.105-0.895 2-2 2h-23.172l8.586 8.586c0.781 0.781 0.781 2.047 0 2.828s-2.047 0.781-2.828 0l-12-12c-0.781-0.781-0.781-2.047 0-2.828l12-12c0.781-0.781 2.047-0.781 2.828 0s0.781 2.047 0 2.828l-8.586 8.586h23.172c1.105 0 2 0.895 2 2z"></path>
</symbol>
<symbol id="icon-arrow-right" viewBox="0 0 32 32">
	<path d="M0 16c0-1.105 0.895-2 2-2h23.172l-8.586-8.586c-0.781-0.781-0.781-2.047 0-2.828s2.047-0.781 2.828 0l12 12c0.781 0.781 0.781 2.047 0 2.828l-12 12c-0.781 0.781-2.047 0.781-2.828 0s-0.781-2.047 0-2.828l8.586-8.586h-23.172c-1.105 0-2-0.895-2-2z"></path>
</symbol>
<symbol id="icon-arrow-right-1" viewBox="0 0 32 32">
<path stroke-linejoin="round" stroke-linecap="round" stroke-miterlimit="4" stroke-width="2.6667" d="M6.667 16h18.667"></path>
<path stroke-linejoin="round" stroke-linecap="round" stroke-miterlimit="4" stroke-width="2.6667" d="M16 25.333l9.333-9.333-9.333-9.333"></path>
</symbol>
<symbol id="icon-arrow-left" viewBox="0 0 32 32">
<path stroke-linejoin="round" stroke-linecap="round" stroke-miterlimit="4" stroke-width="2.6667" d="M25.333 16h-18.667"></path>
<path stroke-linejoin="round" stroke-linecap="round" stroke-miterlimit="4" stroke-width="2.6667" d="M16 25.333l-9.333-9.333 9.333-9.333"></path>
</symbol>
<symbol id="icon-Vector-heart" viewBox="0 0 34 32">
<path fill="#ff6b08" style="fill: var(--color1, #ff6b08)" d="M17.231 31.705l-2.412-2.412c-8.96-7.926-14.818-13.268-14.818-19.815 0-5.342 4.135-9.477 9.477-9.477 2.929 0 5.858 1.378 7.754 3.618 1.895-2.24 4.825-3.618 7.754-3.618 5.342 0 9.477 4.135 9.477 9.477 0 6.548-5.858 11.889-14.818 19.815l-2.412 2.412z"></path>
</symbol>

<symbol id="icon-search" viewBox="0 0 32 32">
<path fill="none" stroke="#fff" style="stroke: var(--color1, #fff)" stroke-linejoin="round" stroke-linecap="round" stroke-miterlimit="4" stroke-width="2.6667" d="M14.667 25.333c5.891 0 10.667-4.776 10.667-10.667s-4.776-10.667-10.667-10.667c-5.891 0-10.667 4.776-10.667 10.667s4.776 10.667 10.667 10.667z"></path>
<path fill="none" stroke="#fff" style="stroke: var(--color1, #fff)" stroke-linejoin="round" stroke-linecap="round" stroke-miterlimit="4" stroke-width="2.6667" d="M28 28.001l-5.8-5.8"></path>
</symbol>
</defs>
</svg>